<?xml version="1.0" encoding="UTF-8" standalone="no"?>
<svg
   xmlns:dc="http://purl.org/dc/elements/1.1/"
   xmlns:cc="http://creativecommons.org/ns#"
   xmlns:rdf="http://www.w3.org/1999/02/22-rdf-syntax-ns#"
   xmlns:svg="http://www.w3.org/2000/svg"
   xmlns="http://www.w3.org/2000/svg"
   id="svg6608"
   version="1.1"
   viewBox="0 0 4.5357137 5.291666"
   height="5.291666mm"
   width="4.5357137mm">
  <defs
     id="defs6602">
    <clipPath
       id="clipPath18"
       clipPathUnits="userSpaceOnUse">
      <path
         id="path16"
         d="M 0,686 H 1038 V 0 H 0 Z" />
    </clipPath>
  </defs>
  <metadata
     id="metadata6605">
    <rdf:RDF>
      <cc:Work
         rdf:about="">
        <dc:format>image/svg+xml</dc:format>
        <dc:type
           rdf:resource="http://purl.org/dc/dcmitype/StillImage" />
        <dc:title></dc:title>
      </cc:Work>
    </rdf:RDF>
  </metadata>
  <g
     transform="translate(-89.958335,-131.44643)"
     id="layer1">
    <g
       id="g12"
       transform="matrix(0.02519841,0,0,-0.02519841,79.300466,139.43297)">
      <g
         clip-path="url(#clipPath18)"
         id="g14">
        <g
           transform="translate(527.958,253.1963)"
           id="g20">
          <path
             id="path22"
             style="fill:#2a5c29;fill-opacity:1;fill-rule:nonzero;stroke:none"
             d="m 0,0 c 0,-3.125 1.094,-5.781 3.281,-7.969 2.188,-2.187 4.844,-3.281 7.969,-3.281 H 75 V -135 c 0,-3.125 -1.094,-5.781 -3.281,-7.969 -2.188,-2.187 -4.844,-3.281 -7.969,-3.281 h -157.5 c -3.125,0 -5.781,1.094 -7.968,3.281 -2.188,2.188 -3.282,4.844 -3.282,7.969 V 52.5 c 0,3.125 1.094,5.781 3.282,7.969 2.187,2.187 4.843,3.281 7.968,3.281 H 0 Z m 15,3.75 v 55.313 c 1.719,-1.094 3.125,-2.188 4.219,-3.282 L 67.031,7.969 c 1.094,-1.094 2.188,-2.5 3.282,-4.219 z" />
        </g>
      </g>
    </g>
  </g>
</svg>
