<?xml version="1.0" encoding="UTF-8" standalone="no"?>
<!-- Created with Inkscape (http://www.inkscape.org/) -->

<svg
   xmlns:dc="http://purl.org/dc/elements/1.1/"
   xmlns:cc="http://creativecommons.org/ns#"
   xmlns:rdf="http://www.w3.org/1999/02/22-rdf-syntax-ns#"
   xmlns:svg="http://www.w3.org/2000/svg"
   xmlns="http://www.w3.org/2000/svg"
   xmlns:sodipodi="http://sodipodi.sourceforge.net/DTD/sodipodi-0.dtd"
   xmlns:inkscape="http://www.inkscape.org/namespaces/inkscape"
   width="4.7297416mm"
   height="5.2916665mm"
   viewBox="0 0 4.7297415 5.2916665"
   version="1.1"
   id="svg4584"
   sodipodi:docname="ic_projetos.svg"
   inkscape:version="0.92.1 r15371">
  <defs
     id="defs4578" />
  <sodipodi:namedview
     id="base"
     pagecolor="#ffffff"
     bordercolor="#666666"
     borderopacity="1.0"
     inkscape:pageopacity="0.0"
     inkscape:pageshadow="2"
     inkscape:zoom="2.8"
     inkscape:cx="63.84575"
     inkscape:cy="104.34141"
     inkscape:document-units="mm"
     inkscape:current-layer="layer1"
     showgrid="false"
     fit-margin-top="0"
     fit-margin-left="0"
     fit-margin-right="0"
     fit-margin-bottom="0"
     inkscape:window-width="1920"
     inkscape:window-height="1016"
     inkscape:window-x="0"
     inkscape:window-y="30"
     inkscape:window-maximized="1" />
  <metadata
     id="metadata4581">
    <rdf:RDF>
      <cc:Work
         rdf:about="">
        <dc:format>image/svg+xml</dc:format>
        <dc:type
           rdf:resource="http://purl.org/dc/dcmitype/StillImage" />
        <dc:title></dc:title>
      </cc:Work>
    </rdf:RDF>
  </metadata>
  <g
     inkscape:label="Camada 1"
     inkscape:groupmode="layer"
     id="layer1"
     transform="translate(-22.793855,-103.2872)">
    <g
       transform="matrix(0.26458333,0,0,0.26458333,4.5111464,47.433661)"
       id="g54"
       style="fill:#226000;fill-opacity:1">
      <g
         id="g42"
         style="fill:#226000;fill-opacity:1" />
      <g
         id="g50"
         style="fill:#226000;fill-opacity:1" />
      <path
         id="path52"
         style="fill:#226000;fill-opacity:1;stroke-width:0.0952381"
         d="m 77.928572,220.0619 v -4.07619 c 0.123809,0.0762 0.228571,0.16191 0.314285,0.2381 l 3.514286,3.51429 c 0.07619,0.0762 0.161905,0.18095 0.238095,0.31428 h -4.066666 z m -1.095239,0.2762 c 0,0.22857 0.07619,0.42857 0.238096,0.59047 0.161904,0.16191 0.352381,0.2381 0.590476,0.2381 h 4.695238 v 9.10476 c 0,0.22857 -0.07619,0.42857 -0.238095,0.59047 -0.161905,0.16191 -0.352381,0.2381 -0.590476,0.2381 H 69.928571 C 69.7,231.1 69.5,231.02381 69.338095,230.8619 69.17619,230.7 69.1,230.50952 69.1,230.27143 v -13.8 c 0,-0.22857 0.07619,-0.42857 0.238095,-0.59048 0.161905,-0.1619 0.352381,-0.23809 0.590476,-0.23809 h 6.895239 v 4.69524 z m 0,-5.82858 c 0.333334,0 0.52381,0.01 0.933334,0.17143 0.161905,0.0857 0.247619,0.0857 0.409524,0.16191 0.190476,0.0952 0.190476,0.0667 0.380952,0.19047 0.2,0.12381 0.361905,0.25715 0.504762,0.4 l 0.133333,0.13334 v -2.19048 H 72.3 c -0.228571,0 -0.428571,0.0762 -0.590476,0.2381 -0.161905,0.1619 -0.238095,0.35238 -0.238095,0.59047 v 0.30476 z m 5.676191,4.38096 0.05714,0.0571 c 0.142857,0.14286 0.266667,0.30476 0.4,0.50476 0.171428,0.26667 0.238095,0.26667 0.4,0.82857 0.08571,0.32381 0.123809,0.54286 0.123809,0.87619 v 7.66667 h 0.390477 c 0.228571,0 0.428571,-0.0762 0.590476,-0.2381 0.161905,-0.1619 0.238095,-0.35238 0.238095,-0.59047 v -9.10476 z m -1.104762,-1.10477 h 2.952381 c -0.07619,-0.12381 -0.161905,-0.22857 -0.238095,-0.31428 l -3.514286,-3.51429 c -0.07619,-0.0762 -0.180952,-0.1619 -0.314286,-0.23809 v 2.95238 z m 3.457143,-1.17142 0.05714,0.0571 c 0.142857,0.14286 0.266666,0.30476 0.4,0.50476 0.171428,0.26667 0.238095,0.26667 0.4,0.82857 0.08571,0.32381 0.123809,0.54286 0.123809,0.87619 v 7.66667 h 0.304762 c 0.228572,0 0.428572,-0.0762 0.590476,-0.2381 0.161905,-0.1619 0.238096,-0.35238 0.238096,-0.59047 v -9.10476 z m -1.104762,-1.10477 h 2.866667 c -0.07619,-0.12381 -0.161905,-0.22857 -0.238095,-0.31428 l -3.514286,-3.51429 c -0.07619,-0.0762 -0.180953,-0.1619 -0.314286,-0.23809 v 2.86666 z m -4.571429,-3.27619 c 0.333334,0 0.52381,0.01 0.933334,0.17143 0.161905,0.0857 0.247619,0.0857 0.409524,0.16191 0.190476,0.0952 0.190476,0.0667 0.380952,0.19047 0.2,0.12381 0.361905,0.25715 0.504762,0.4 l 0.05714,0.0572 V 211.1 h -6.895238 c -0.228572,0 -0.428572,0.0762 -0.590477,0.23809 -0.161904,0.16191 -0.238095,0.35239 -0.238095,0.59048 v 0.30476 z"
         inkscape:connector-curvature="0" />
    </g>
  </g>
</svg>
