<?xml version="1.0" encoding="UTF-8" standalone="no"?>
<svg
   xmlns:dc="http://purl.org/dc/elements/1.1/"
   xmlns:cc="http://creativecommons.org/ns#"
   xmlns:rdf="http://www.w3.org/1999/02/22-rdf-syntax-ns#"
   xmlns:svg="http://www.w3.org/2000/svg"
   xmlns="http://www.w3.org/2000/svg"
   id="svg4644"
   version="1.1"
   viewBox="0 0 5.3955917 5.291667"
   height="5.291667mm"
   width="5.3955917mm">
  <defs
     id="defs4638" />
  <metadata
     id="metadata4641">
    <rdf:RDF>
      <cc:Work
         rdf:about="">
        <dc:format>image/svg+xml</dc:format>
        <dc:type
           rdf:resource="http://purl.org/dc/dcmitype/StillImage" />
        <dc:title></dc:title>
      </cc:Work>
    </rdf:RDF>
  </metadata>
  <g
     transform="translate(-111.36993,-92.463361)"
     id="layer1">
    <g
       style="fill:#226000;fill-opacity:0.94117647"
       transform="matrix(0.07042264,0,0,0.07042264,105.54994,88.886851)"
       id="g5205">
      <g
         style="fill:#226000;fill-opacity:0.94117647"
         id="g66"
         transform="matrix(0.35277777,0,0,-0.35277777,120.77594,90.814645)">
        <path
           d="m 0,0 c 26.769,0 48.472,25.4 48.472,56.733 0,43.45 -21.702,56.733 -48.472,56.733 -26.77,0 -48.47,-13.283 -48.47,-56.733 C -48.47,25.4 -26.77,0 0,0"
           style="fill:#226000;fill-opacity:0.94117647;fill-rule:nonzero;stroke:none"
           id="path68" />
      </g>
      <g
         style="fill:#226000;fill-opacity:0.94117647"
         id="g70"
         transform="matrix(0.35277777,0,0,-0.35277777,158.888,119.86473)">
        <path
           d="m 0,0 -17.534,34.813 c -7,12 -20,29 -35,37 l -15.399,8.916 c -0.837,0.435 -1.849,0.35 -2.604,-0.22 C -81.271,72.391 -93.891,68.1 -107.034,68.1 c -0.167,0 -0.333,0.008 -0.5,0.009 -0.167,-10e-4 -0.333,-0.009 -0.5,-0.009 -13.144,0 -25.763,4.291 -36.497,12.409 -0.755,0.57 -1.768,0.655 -2.605,0.22 l -15.398,-8.916 c -15,-8 -28,-25 -35,-37 L -215.068,0 c -1.686,-3.797 -1.34,-8.143 0.924,-11.626 2.265,-3.483 6.096,-5.561 10.25,-5.561 h 96.36 96.359 c 4.154,0 7.987,2.078 10.25,5.561 C 1.34,-8.143 1.686,-3.797 0,0"
           style="fill:#226000;fill-opacity:0.94117647;fill-rule:nonzero;stroke:none"
           id="path72" />
      </g>
    </g>
  </g>
</svg>
